<?xml version="1.0" encoding="utf-8"?>
<!-- Generator: Adobe Illustrator 24.2.3, SVG Export Plug-In . SVG Version: 6.00 Build 0)  -->
<svg version="1.1" id="Layer_1" xmlns="http://www.w3.org/2000/svg" xmlns:xlink="http://www.w3.org/1999/xlink" x="0px" y="0px"
	 viewBox="0 0 50 50" style="enable-background:new 0 0 50 50;" xml:space="preserve">
<style type="text/css">
	.st0{fill:#FFFFFF;}
	.st1{fill:#94D6D0;}
</style>
<circle class="st0" cx="26.3" cy="24.5" r="22.5"/>
<g>
	<path class="st1" d="M16,29.6c0,0,0.1-0.1,0.1-0.2c0.1-0.1,0.1-0.1,0.1-0.1c-0.1,0-0.6,0.2-0.6,0.2C15.8,29.6,16,29.7,16,29.6z"/>
	<path class="st1" d="M28.3,17.1c-0.2-0.9-0.8-1.5-1.8-1.8c-0.4-0.1-1.5-0.2-1.9-0.1c-1.3,0.2-2.7,0.7-4.2,1.6
		c-2.8,1.6-5.4,4.1-7.2,6.9c-1.3,2-2.1,3.9-2.5,5.9c-0.1,0.6-0.2,2.1-0.1,2.7c0.2,1,0.6,1.7,1.1,1.9c0.2,0.1,0.5,0.1,0.8-0.1
		c0.7-0.3,1.5-1.1,2.3-2.4c0.4-0.6,0.9-1.5,0.9-1.5c0,0-0.3-0.1-0.5-0.1c-1-0.2-1.1-0.3-1.1-0.4c0-0.2,0-0.4,0.1-0.4
		c0.1,0,0.5-0.2,1-0.3s1-0.3,1.2-0.4l0.3-0.1l0.2-0.3c1.2-2.3,1.9-4.4,2.1-5.8c0.1-0.4,0.1-1.4,0-1.6c0-0.1-0.1-0.1-0.1-0.1
		c-0.1,0-0.1,0-0.1-0.1c0,0,0-0.2,0-0.3c0-0.2,0-0.2,0.1-0.3c0.2-0.2,0.5-0.1,0.6,0.2c0.1,0.4-0.1,1.7-0.3,2.9
		c-0.3,1.2-1,3.1-1.7,4.6c-0.1,0.2-0.2,0.4-0.2,0.5c0,0.1,1.6-0.7,2.7-1.2c2.2-1.2,3.9-2.4,5.4-3.9c1.6-1.6,2.6-3.2,3-4.6
		C28.3,18,28.4,17.4,28.3,17.1z"/>
	<path class="st1" d="M26.3,2C13.9,2,3.8,12.1,3.8,24.5S13.9,47,26.3,47s22.5-10.1,22.5-22.5S38.7,2,26.3,2z M20.7,27.1
		c-1.2,0.7-2.3,1.3-3.4,1.8l-0.5,0.2l-0.2,0.4l-0.2,0.4l0.4,0.1c1.6,0.5,4.2,1.6,5.5,2.3c0.9,0.5,1.2,0.6,1.3,0.8
		c0.1,0.1,0.1,0.2,0,0.2c-0.1,0.2-0.2,0.2-0.9-0.2c-1.9-1-4.3-2-6-2.5c-0.3-0.1-0.5-0.2-0.5-0.2c0,0-0.2,0.2-0.4,0.6
		c-1.3,2.3-2.5,3.5-3.6,3.7c-0.1,0-0.2,0-0.3,0s-0.1,0-0.2,0c-0.4-0.1-0.8-0.4-1-0.8c-0.1-0.2-0.4-0.9-0.4-1.3
		c0-0.2-0.1-0.6-0.1-1.3c0-1.1,0.1-1.5,0.3-2.5c0.7-2.7,2.3-5.5,4.7-8.1c2.8-3,6.3-5.1,9.1-5.6c1.6-0.2,2.9,0.1,3.6,0.8
		c0.5,0.5,0.7,1,0.8,1.8c0.1,0.8-0.2,1.6-0.7,2.6C26.8,22.5,24.3,25,20.7,27.1z M38,29c-3,2.6-5.5,4.1-7.2,4.7
		C29.9,34,29,34.1,28.4,34c-0.5-0.1-0.7-0.3-1.1-0.6h0c-0.3-0.4-0.6-0.8-0.7-1.4c-0.1-0.5-0.1-1.7,0-2.4c0.4-2.5,1.9-5.8,3.7-8.3
		c2.4-3.2,5.2-5.4,7.7-5.9c0.5-0.1,1.2-0.1,1.5,0c0.5,0.2,0.8,0.5,1,0.9c0.1,0.3,0.1,1,0,1.4c-0.2,0.6-0.6,1.1-0.9,1.1
		c-0.1,0-0.3-0.1-0.3-0.2c0-0.1,0.1-0.3,0.2-0.5c0.2-0.5,0.4-1,0.3-1.3c-0.1-0.3-0.2-0.5-0.4-0.6c-0.2-0.1-0.2-0.1-0.8-0.1
		c-0.4,0-0.6,0-0.9,0.1c-0.8,0.2-1.8,0.7-2.6,1.2c-2.5,1.6-4.8,4.3-6.3,7.4c-1.6,3.1-2.2,5.8-1.6,7.4c0.2,0.7,0.7,1.2,1.5,1.4
		c1.3,0.3,3.1-0.4,5.5-2.1c1.9-1.4,4-3.1,6.8-5.7c0.3-0.2,0.5-0.5,0.5-0.5c0.1,0,0.1,0.1,0.1,0.2C41.5,25.8,39.4,27.8,38,29z"/>
</g>
</svg>
